<svg xmlns="http://www.w3.org/2000/svg" xmlns:xlink="http://www.w3.org/1999/xlink" width="500" zoomAndPan="magnify" viewBox="0 0 375 187.499995" height="250" preserveAspectRatio="xMidYMid meet" version="1.0"><defs><g/><clipPath id="ae42fd7092"><path d="M 19.199219 50.113281 L 101.480469 50.113281 L 101.480469 136.882812 L 19.199219 136.882812 Z M 19.199219 50.113281 " clip-rule="nonzero"/></clipPath></defs><g clip-path="url(#ae42fd7092)"><path fill="#7ed957" d="M 32.796875 64.550781 L 60.664062 50.113281 L 101.71875 70.644531 L 101.71875 80.847656 L 61.292969 73.097656 L 32.796875 78.3125 Z M 32.796875 122.441406 L 60.664062 136.875 L 101.71875 116.347656 L 101.71875 106.140625 L 61.292969 113.894531 L 32.796875 108.679688 Z M 19.222656 98.554688 L 60.378906 105.734375 L 88.929688 100.476562 L 88.929688 87.203125 L 60.667969 81.6875 L 19.222656 89.089844 Z M 19.222656 98.554688 " fill-opacity="1" fill-rule="nonzero"/></g><g fill="#0da81d" fill-opacity="1"><g transform="translate(106.417609, 108.460764)"><g><path d="M 12.40625 0.40625 C 10.488281 0.40625 8.765625 0.078125 7.234375 -0.578125 C 5.710938 -1.234375 4.507812 -2.144531 3.625 -3.3125 C 2.738281 -4.488281 2.25 -5.84375 2.15625 -7.375 L 6.453125 -7.375 C 6.578125 -6.125 7.164062 -5.097656 8.21875 -4.296875 C 9.269531 -3.503906 10.648438 -3.109375 12.359375 -3.109375 C 13.953125 -3.109375 15.207031 -3.457031 16.125 -4.15625 C 17.039062 -4.863281 17.5 -5.753906 17.5 -6.828125 C 17.5 -7.921875 17.007812 -8.734375 16.03125 -9.265625 C 15.050781 -9.804688 13.539062 -10.335938 11.5 -10.859375 C 9.632812 -11.347656 8.113281 -11.84375 6.9375 -12.34375 C 5.757812 -12.84375 4.75 -13.585938 3.90625 -14.578125 C 3.070312 -15.578125 2.65625 -16.882812 2.65625 -18.5 C 2.65625 -19.78125 3.035156 -20.953125 3.796875 -22.015625 C 4.566406 -23.085938 5.648438 -23.9375 7.046875 -24.5625 C 8.453125 -25.195312 10.054688 -25.515625 11.859375 -25.515625 C 14.640625 -25.515625 16.882812 -24.8125 18.59375 -23.40625 C 20.300781 -22 21.21875 -20.070312 21.34375 -17.625 L 17.171875 -17.625 C 17.078125 -18.9375 16.550781 -19.988281 15.59375 -20.78125 C 14.632812 -21.582031 13.34375 -21.984375 11.71875 -21.984375 C 10.226562 -21.984375 9.039062 -21.660156 8.15625 -21.015625 C 7.269531 -20.378906 6.828125 -19.539062 6.828125 -18.5 C 6.828125 -17.675781 7.09375 -16.992188 7.625 -16.453125 C 8.15625 -15.921875 8.828125 -15.492188 9.640625 -15.171875 C 10.453125 -14.859375 11.570312 -14.503906 13 -14.109375 C 14.800781 -13.617188 16.265625 -13.132812 17.390625 -12.65625 C 18.523438 -12.1875 19.5 -11.476562 20.3125 -10.53125 C 21.125 -9.582031 21.546875 -8.347656 21.578125 -6.828125 C 21.578125 -5.453125 21.191406 -4.210938 20.421875 -3.109375 C 19.660156 -2.015625 18.582031 -1.15625 17.1875 -0.53125 C 15.800781 0.09375 14.207031 0.40625 12.40625 0.40625 Z M 12.40625 0.40625 "/></g></g></g><g fill="#0da81d" fill-opacity="1"><g transform="translate(129.038433, 108.460764)"><g><path d="M 8.609375 -21.65625 L 8.609375 -6.875 C 8.609375 -5.644531 8.867188 -4.78125 9.390625 -4.28125 C 9.910156 -3.78125 10.8125 -3.53125 12.09375 -3.53125 L 15.15625 -3.53125 L 15.15625 0 L 11.40625 0 C 9.082031 0 7.335938 -0.53125 6.171875 -1.59375 C 5.015625 -2.664062 4.4375 -4.425781 4.4375 -6.875 L 4.4375 -21.65625 L 1.1875 -21.65625 L 1.1875 -25.09375 L 4.4375 -25.09375 L 4.4375 -31.421875 L 8.609375 -31.421875 L 8.609375 -25.09375 L 15.15625 -25.09375 L 15.15625 -21.65625 Z M 8.609375 -21.65625 "/></g></g></g><g fill="#0da81d" fill-opacity="1"><g transform="translate(144.424131, 108.460764)"><g><path d="M 1.96875 -12.640625 C 1.96875 -15.203125 2.484375 -17.453125 3.515625 -19.390625 C 4.554688 -21.328125 5.984375 -22.832031 7.796875 -23.90625 C 9.617188 -24.976562 11.644531 -25.515625 13.875 -25.515625 C 16.070312 -25.515625 17.976562 -25.039062 19.59375 -24.09375 C 21.21875 -23.144531 22.425781 -21.953125 23.21875 -20.515625 L 23.21875 -25.09375 L 27.4375 -25.09375 L 27.4375 0 L 23.21875 0 L 23.21875 -4.671875 C 22.394531 -3.203125 21.164062 -1.988281 19.53125 -1.03125 C 17.894531 -0.0703125 15.992188 0.40625 13.828125 0.40625 C 11.597656 0.40625 9.582031 -0.140625 7.78125 -1.234375 C 5.976562 -2.335938 4.554688 -3.878906 3.515625 -5.859375 C 2.484375 -7.847656 1.96875 -10.109375 1.96875 -12.640625 Z M 23.21875 -12.59375 C 23.21875 -14.488281 22.832031 -16.132812 22.0625 -17.53125 C 21.300781 -18.9375 20.269531 -20.015625 18.96875 -20.765625 C 17.675781 -21.515625 16.253906 -21.890625 14.703125 -21.890625 C 13.140625 -21.890625 11.71875 -21.519531 10.4375 -20.78125 C 9.15625 -20.050781 8.132812 -18.984375 7.375 -17.578125 C 6.613281 -16.179688 6.234375 -14.535156 6.234375 -12.640625 C 6.234375 -10.710938 6.613281 -9.039062 7.375 -7.625 C 8.132812 -6.207031 9.15625 -5.125 10.4375 -4.375 C 11.71875 -3.625 13.140625 -3.25 14.703125 -3.25 C 16.253906 -3.25 17.675781 -3.625 18.96875 -4.375 C 20.269531 -5.125 21.300781 -6.207031 22.0625 -7.625 C 22.832031 -9.039062 23.21875 -10.695312 23.21875 -12.59375 Z M 23.21875 -12.59375 "/></g></g></g><g fill="#0da81d" fill-opacity="1"><g transform="translate(174.096917, 108.460764)"><g><path d="M 15.75 -25.546875 C 18.800781 -25.546875 21.273438 -24.625 23.171875 -22.78125 C 25.066406 -20.9375 26.015625 -18.273438 26.015625 -14.796875 L 26.015625 0 L 21.890625 0 L 21.890625 -14.203125 C 21.890625 -16.703125 21.265625 -18.613281 20.015625 -19.9375 C 18.765625 -21.269531 17.054688 -21.9375 14.890625 -21.9375 C 12.691406 -21.9375 10.941406 -21.25 9.640625 -19.875 C 8.335938 -18.5 7.6875 -16.5 7.6875 -13.875 L 7.6875 0 L 3.53125 0 L 3.53125 -25.09375 L 7.6875 -25.09375 L 7.6875 -21.53125 C 8.519531 -22.8125 9.644531 -23.800781 11.0625 -24.5 C 12.476562 -25.195312 14.039062 -25.546875 15.75 -25.546875 Z M 15.75 -25.546875 "/></g></g></g><g fill="#0da81d" fill-opacity="1"><g transform="translate(202.121194, 108.460764)"><g><path d="M 6.640625 -3.4375 L 18.953125 -3.4375 L 18.953125 0 L 1.875 0 L 1.875 -3.4375 L 14.0625 -21.703125 L 1.96875 -21.703125 L 1.96875 -25.09375 L 18.875 -25.09375 L 18.875 -21.703125 Z M 6.640625 -3.4375 "/></g></g></g><g fill="#0da81d" fill-opacity="1"><g transform="translate(221.673959, 108.460764)"><g><path d="M 1.96875 -12.640625 C 1.96875 -15.203125 2.484375 -17.453125 3.515625 -19.390625 C 4.554688 -21.328125 5.984375 -22.832031 7.796875 -23.90625 C 9.617188 -24.976562 11.644531 -25.515625 13.875 -25.515625 C 16.070312 -25.515625 17.976562 -25.039062 19.59375 -24.09375 C 21.21875 -23.144531 22.425781 -21.953125 23.21875 -20.515625 L 23.21875 -25.09375 L 27.4375 -25.09375 L 27.4375 0 L 23.21875 0 L 23.21875 -4.671875 C 22.394531 -3.203125 21.164062 -1.988281 19.53125 -1.03125 C 17.894531 -0.0703125 15.992188 0.40625 13.828125 0.40625 C 11.597656 0.40625 9.582031 -0.140625 7.78125 -1.234375 C 5.976562 -2.335938 4.554688 -3.878906 3.515625 -5.859375 C 2.484375 -7.847656 1.96875 -10.109375 1.96875 -12.640625 Z M 23.21875 -12.59375 C 23.21875 -14.488281 22.832031 -16.132812 22.0625 -17.53125 C 21.300781 -18.9375 20.269531 -20.015625 18.96875 -20.765625 C 17.675781 -21.515625 16.253906 -21.890625 14.703125 -21.890625 C 13.140625 -21.890625 11.71875 -21.519531 10.4375 -20.78125 C 9.15625 -20.050781 8.132812 -18.984375 7.375 -17.578125 C 6.613281 -16.179688 6.234375 -14.535156 6.234375 -12.640625 C 6.234375 -10.710938 6.613281 -9.039062 7.375 -7.625 C 8.132812 -6.207031 9.15625 -5.125 10.4375 -4.375 C 11.71875 -3.625 13.140625 -3.25 14.703125 -3.25 C 16.253906 -3.25 17.675781 -3.625 18.96875 -4.375 C 20.269531 -5.125 21.300781 -6.207031 22.0625 -7.625 C 22.832031 -9.039062 23.21875 -10.695312 23.21875 -12.59375 Z M 23.21875 -12.59375 "/></g></g></g><g fill="#737373" fill-opacity="1"><g transform="translate(251.355317, 108.460764)"><g><path d="M 18.046875 0.328125 C 15.023438 0.328125 12.253906 -0.375 9.734375 -1.78125 C 7.210938 -3.1875 5.210938 -5.148438 3.734375 -7.671875 C 2.253906 -10.191406 1.515625 -13.023438 1.515625 -16.171875 C 1.515625 -19.316406 2.253906 -22.140625 3.734375 -24.640625 C 5.210938 -27.140625 7.210938 -29.09375 9.734375 -30.5 C 12.253906 -31.90625 15.023438 -32.609375 18.046875 -32.609375 C 21.066406 -32.609375 23.835938 -31.90625 26.359375 -30.5 C 28.878906 -29.09375 30.863281 -27.140625 32.3125 -24.640625 C 33.757812 -22.140625 34.484375 -19.316406 34.484375 -16.171875 C 34.484375 -13.023438 33.75 -10.191406 32.28125 -7.671875 C 30.820312 -5.148438 28.835938 -3.1875 26.328125 -1.78125 C 23.828125 -0.375 21.066406 0.328125 18.046875 0.328125 Z M 18.046875 -6.828125 C 20.609375 -6.828125 22.660156 -7.679688 24.203125 -9.390625 C 25.742188 -11.097656 26.515625 -13.359375 26.515625 -16.171875 C 26.515625 -19.003906 25.742188 -21.269531 24.203125 -22.96875 C 22.660156 -24.664062 20.609375 -25.515625 18.046875 -25.515625 C 15.453125 -25.515625 13.382812 -24.671875 11.84375 -22.984375 C 10.300781 -21.304688 9.53125 -19.035156 9.53125 -16.171875 C 9.53125 -13.328125 10.300781 -11.054688 11.84375 -9.359375 C 13.382812 -7.671875 15.453125 -6.828125 18.046875 -6.828125 Z M 18.046875 -6.828125 "/></g></g></g><g fill="#737373" fill-opacity="1"><g transform="translate(286.065222, 108.460764)"><g><path d="M 18.40625 -25.828125 C 21.394531 -25.828125 23.78125 -24.859375 25.5625 -22.921875 C 27.351562 -20.984375 28.25 -18.320312 28.25 -14.9375 L 28.25 0 L 20.46875 0 L 20.46875 -13.875 C 20.46875 -15.582031 20.023438 -16.910156 19.140625 -17.859375 C 18.253906 -18.804688 17.066406 -19.28125 15.578125 -19.28125 C 14.078125 -19.28125 12.882812 -18.804688 12 -17.859375 C 11.113281 -16.910156 10.671875 -15.582031 10.671875 -13.875 L 10.671875 0 L 2.84375 0 L 2.84375 -25.546875 L 10.671875 -25.546875 L 10.671875 -22.171875 C 11.460938 -23.296875 12.53125 -24.1875 13.875 -24.84375 C 15.21875 -25.5 16.726562 -25.828125 18.40625 -25.828125 Z M 18.40625 -25.828125 "/></g></g></g><g fill="#737373" fill-opacity="1"><g transform="translate(315.646424, 108.460764)"><g><path d="M 26.921875 -13.1875 C 26.921875 -12.457031 26.878906 -11.695312 26.796875 -10.90625 L 9.0625 -10.90625 C 9.1875 -9.3125 9.695312 -8.09375 10.59375 -7.25 C 11.5 -6.414062 12.609375 -6 13.921875 -6 C 15.878906 -6 17.238281 -6.820312 18 -8.46875 L 26.328125 -8.46875 C 25.898438 -6.789062 25.128906 -5.28125 24.015625 -3.9375 C 22.898438 -2.59375 21.503906 -1.539062 19.828125 -0.78125 C 18.148438 -0.0195312 16.273438 0.359375 14.203125 0.359375 C 11.691406 0.359375 9.457031 -0.171875 7.5 -1.234375 C 5.550781 -2.304688 4.023438 -3.832031 2.921875 -5.8125 C 1.828125 -7.800781 1.28125 -10.125 1.28125 -12.78125 C 1.28125 -15.4375 1.820312 -17.753906 2.90625 -19.734375 C 3.988281 -21.722656 5.503906 -23.25 7.453125 -24.3125 C 9.410156 -25.382812 11.660156 -25.921875 14.203125 -25.921875 C 16.671875 -25.921875 18.863281 -25.398438 20.78125 -24.359375 C 22.707031 -23.328125 24.210938 -21.847656 25.296875 -19.921875 C 26.378906 -17.992188 26.921875 -15.75 26.921875 -13.1875 Z M 18.921875 -15.25 C 18.921875 -16.59375 18.460938 -17.660156 17.546875 -18.453125 C 16.628906 -19.242188 15.484375 -19.640625 14.109375 -19.640625 C 12.796875 -19.640625 11.6875 -19.257812 10.78125 -18.5 C 9.882812 -17.738281 9.328125 -16.65625 9.109375 -15.25 Z M 18.921875 -15.25 "/></g></g></g></svg>