<svg xmlns="http://www.w3.org/2000/svg" xmlns:xlink="http://www.w3.org/1999/xlink" width="500" zoomAndPan="magnify" viewBox="0 0 375 187.499995" height="250" preserveAspectRatio="xMidYMid meet" version="1.0"><defs><g/><clipPath id="40ea6e9035"><path d="M 19.199219 50.113281 L 101.480469 50.113281 L 101.480469 136.882812 L 19.199219 136.882812 Z M 19.199219 50.113281 " clip-rule="nonzero"/></clipPath></defs><g clip-path="url(#40ea6e9035)"><path fill="#ffffff" d="M 32.796875 64.550781 L 60.664062 50.113281 L 101.71875 70.644531 L 101.71875 80.847656 L 61.292969 73.097656 L 32.796875 78.3125 Z M 32.796875 122.441406 L 60.664062 136.875 L 101.71875 116.347656 L 101.71875 106.140625 L 61.292969 113.894531 L 32.796875 108.679688 Z M 19.222656 98.554688 L 60.378906 105.734375 L 88.929688 100.476562 L 88.929688 87.203125 L 60.667969 81.6875 L 19.222656 89.089844 Z M 19.222656 98.554688 " fill-opacity="1" fill-rule="nonzero"/></g><g fill="#ffffff" fill-opacity="1"><g transform="translate(110.398094, 111.078782)"><g><path d="M 12.734375 0.515625 C 10.523438 0.515625 8.472656 0.15625 6.578125 -0.5625 C 4.679688 -1.289062 3.039062 -2.394531 1.65625 -3.875 L 3.109375 -6.359375 C 4.628906 -4.953125 6.15625 -3.925781 7.6875 -3.28125 C 9.21875 -2.644531 10.847656 -2.328125 12.578125 -2.328125 C 14.679688 -2.328125 16.390625 -2.75 17.703125 -3.59375 C 19.015625 -4.4375 19.671875 -5.65625 19.671875 -7.25 C 19.671875 -8.320312 19.347656 -9.140625 18.703125 -9.703125 C 18.066406 -10.273438 17.15625 -10.738281 15.96875 -11.09375 C 14.78125 -11.457031 13.359375 -11.847656 11.703125 -12.265625 C 9.835938 -12.785156 8.273438 -13.328125 7.015625 -13.890625 C 5.753906 -14.460938 4.800781 -15.1875 4.15625 -16.0625 C 3.519531 -16.945312 3.203125 -18.097656 3.203125 -19.515625 C 3.203125 -21.273438 3.640625 -22.734375 4.515625 -23.890625 C 5.398438 -25.046875 6.609375 -25.925781 8.140625 -26.53125 C 9.679688 -27.132812 11.398438 -27.4375 13.296875 -27.4375 C 15.367188 -27.4375 17.195312 -27.109375 18.78125 -26.453125 C 20.375 -25.796875 21.671875 -24.878906 22.671875 -23.703125 L 20.96875 -21.328125 C 20 -22.429688 18.847656 -23.25 17.515625 -23.78125 C 16.191406 -24.320312 14.71875 -24.59375 13.09375 -24.59375 C 11.988281 -24.59375 10.9375 -24.441406 9.9375 -24.140625 C 8.9375 -23.847656 8.113281 -23.363281 7.46875 -22.6875 C 6.832031 -22.019531 6.515625 -21.101562 6.515625 -19.9375 C 6.515625 -18.96875 6.753906 -18.210938 7.234375 -17.671875 C 7.722656 -17.140625 8.453125 -16.691406 9.421875 -16.328125 C 10.390625 -15.960938 11.582031 -15.578125 13 -15.171875 C 15.03125 -14.617188 16.804688 -14.054688 18.328125 -13.484375 C 19.847656 -12.910156 21.019531 -12.175781 21.84375 -11.28125 C 22.675781 -10.382812 23.09375 -9.125 23.09375 -7.5 C 23.09375 -4.988281 22.140625 -3.023438 20.234375 -1.609375 C 18.335938 -0.191406 15.835938 0.515625 12.734375 0.515625 Z M 12.734375 0.515625 "/></g></g></g><g fill="#ffffff" fill-opacity="1"><g transform="translate(133.950512, 111.078782)"><g><path d="M 16.828125 -1.296875 C 16.546875 -1.191406 16.113281 -1 15.53125 -0.71875 C 14.945312 -0.445312 14.238281 -0.207031 13.40625 0 C 12.582031 0.207031 11.6875 0.3125 10.71875 0.3125 C 9.71875 0.3125 8.773438 0.125 7.890625 -0.25 C 7.015625 -0.632812 6.316406 -1.210938 5.796875 -1.984375 C 5.273438 -2.765625 5.015625 -3.722656 5.015625 -4.859375 L 5.015625 -24.171875 L 1.296875 -24.171875 L 1.296875 -26.96875 L 5.015625 -26.96875 L 5.015625 -36.078125 L 8.546875 -36.078125 L 8.546875 -26.96875 L 14.75 -26.96875 L 14.75 -24.171875 L 8.546875 -24.171875 L 8.546875 -5.84375 C 8.609375 -4.882812 8.957031 -4.160156 9.59375 -3.671875 C 10.238281 -3.191406 10.972656 -2.953125 11.796875 -2.953125 C 12.765625 -2.953125 13.644531 -3.113281 14.4375 -3.4375 C 15.238281 -3.769531 15.722656 -4.003906 15.890625 -4.140625 Z M 16.828125 -1.296875 "/></g></g></g><g fill="#ffffff" fill-opacity="1"><g transform="translate(149.841812, 111.078782)"><g><path d="M 1.703125 -7.765625 C 1.703125 -9.453125 2.1875 -10.910156 3.15625 -12.140625 C 4.125 -13.367188 5.460938 -14.316406 7.171875 -14.984375 C 8.878906 -15.660156 10.851562 -16 13.09375 -16 C 14.40625 -16 15.769531 -15.894531 17.1875 -15.6875 C 18.601562 -15.476562 19.863281 -15.164062 20.96875 -14.75 L 20.96875 -17.03125 C 20.96875 -19.3125 20.289062 -21.125 18.9375 -22.46875 C 17.59375 -23.8125 15.734375 -24.484375 13.359375 -24.484375 C 11.910156 -24.484375 10.484375 -24.210938 9.078125 -23.671875 C 7.679688 -23.140625 6.222656 -22.359375 4.703125 -21.328125 L 3.359375 -23.8125 C 5.117188 -25.019531 6.84375 -25.925781 8.53125 -26.53125 C 10.226562 -27.132812 11.957031 -27.4375 13.71875 -27.4375 C 17.03125 -27.4375 19.648438 -26.484375 21.578125 -24.578125 C 23.515625 -22.679688 24.484375 -20.0625 24.484375 -16.71875 L 24.484375 -4.25 C 24.484375 -3.757812 24.585938 -3.398438 24.796875 -3.171875 C 25.003906 -2.953125 25.332031 -2.828125 25.78125 -2.796875 L 25.78125 0 C 25.394531 0.03125 25.0625 0.0625 24.78125 0.09375 C 24.507812 0.132812 24.304688 0.140625 24.171875 0.109375 C 23.304688 0.0664062 22.648438 -0.207031 22.203125 -0.71875 C 21.753906 -1.238281 21.515625 -1.789062 21.484375 -2.375 L 21.4375 -4.34375 C 20.226562 -2.789062 18.65625 -1.59375 16.71875 -0.75 C 14.789062 0.09375 12.820312 0.515625 10.8125 0.515625 C 9.09375 0.515625 7.53125 0.144531 6.125 -0.59375 C 4.726562 -1.332031 3.640625 -2.332031 2.859375 -3.59375 C 2.085938 -4.851562 1.703125 -6.242188 1.703125 -7.765625 Z M 19.78125 -5.6875 C 20.15625 -6.175781 20.445312 -6.644531 20.65625 -7.09375 C 20.863281 -7.539062 20.96875 -7.9375 20.96875 -8.28125 L 20.96875 -12.21875 C 19.789062 -12.664062 18.570312 -13.007812 17.3125 -13.25 C 16.050781 -13.488281 14.785156 -13.609375 13.515625 -13.609375 C 10.992188 -13.609375 8.957031 -13.109375 7.40625 -12.109375 C 5.851562 -11.109375 5.078125 -9.75 5.078125 -8.03125 C 5.078125 -7.019531 5.332031 -6.070312 5.84375 -5.1875 C 6.363281 -4.3125 7.125 -3.585938 8.125 -3.015625 C 9.125 -2.453125 10.296875 -2.171875 11.640625 -2.171875 C 13.335938 -2.171875 14.914062 -2.5 16.375 -3.15625 C 17.84375 -3.8125 18.976562 -4.65625 19.78125 -5.6875 Z M 19.78125 -5.6875 "/></g></g></g><g fill="#ffffff" fill-opacity="1"><g transform="translate(176.603625, 111.078782)"><g><path d="M 26.5625 0 L 23.03125 0 L 23.03125 -15.0625 C 23.03125 -18.238281 22.5625 -20.554688 21.625 -22.015625 C 20.695312 -23.484375 19.234375 -24.21875 17.234375 -24.21875 C 15.859375 -24.21875 14.492188 -23.878906 13.140625 -23.203125 C 11.796875 -22.535156 10.613281 -21.625 9.59375 -20.46875 C 8.582031 -19.3125 7.851562 -17.992188 7.40625 -16.515625 L 7.40625 0 L 3.875 0 L 3.875 -26.96875 L 7.09375 -26.96875 L 7.09375 -20.859375 C 7.8125 -22.171875 8.757812 -23.316406 9.9375 -24.296875 C 11.113281 -25.285156 12.441406 -26.054688 13.921875 -26.609375 C 15.410156 -27.160156 16.945312 -27.4375 18.53125 -27.4375 C 20.019531 -27.4375 21.28125 -27.160156 22.3125 -26.609375 C 23.34375 -26.054688 24.171875 -25.269531 24.796875 -24.25 C 25.421875 -23.226562 25.867188 -22 26.140625 -20.5625 C 26.421875 -19.132812 26.5625 -17.539062 26.5625 -15.78125 Z M 26.5625 0 "/></g></g></g><g fill="#ffffff" fill-opacity="1"><g transform="translate(205.332479, 111.078782)"><g><path d="M 1.609375 -2.375 L 19.671875 -24.328125 L 2.015625 -24.328125 L 2.015625 -26.96875 L 23.65625 -26.96875 L 23.65625 -24.59375 L 5.6875 -2.640625 L 23.609375 -2.640625 L 23.609375 0 L 1.609375 0 Z M 1.609375 -2.375 "/></g></g></g><g fill="#ffffff" fill-opacity="1"><g transform="translate(229.35078, 111.078782)"><g><path d="M 1.703125 -7.765625 C 1.703125 -9.453125 2.1875 -10.910156 3.15625 -12.140625 C 4.125 -13.367188 5.460938 -14.316406 7.171875 -14.984375 C 8.878906 -15.660156 10.851562 -16 13.09375 -16 C 14.40625 -16 15.769531 -15.894531 17.1875 -15.6875 C 18.601562 -15.476562 19.863281 -15.164062 20.96875 -14.75 L 20.96875 -17.03125 C 20.96875 -19.3125 20.289062 -21.125 18.9375 -22.46875 C 17.59375 -23.8125 15.734375 -24.484375 13.359375 -24.484375 C 11.910156 -24.484375 10.484375 -24.210938 9.078125 -23.671875 C 7.679688 -23.140625 6.222656 -22.359375 4.703125 -21.328125 L 3.359375 -23.8125 C 5.117188 -25.019531 6.84375 -25.925781 8.53125 -26.53125 C 10.226562 -27.132812 11.957031 -27.4375 13.71875 -27.4375 C 17.03125 -27.4375 19.648438 -26.484375 21.578125 -24.578125 C 23.515625 -22.679688 24.484375 -20.0625 24.484375 -16.71875 L 24.484375 -4.25 C 24.484375 -3.757812 24.585938 -3.398438 24.796875 -3.171875 C 25.003906 -2.953125 25.332031 -2.828125 25.78125 -2.796875 L 25.78125 0 C 25.394531 0.03125 25.0625 0.0625 24.78125 0.09375 C 24.507812 0.132812 24.304688 0.140625 24.171875 0.109375 C 23.304688 0.0664062 22.648438 -0.207031 22.203125 -0.71875 C 21.753906 -1.238281 21.515625 -1.789062 21.484375 -2.375 L 21.4375 -4.34375 C 20.226562 -2.789062 18.65625 -1.59375 16.71875 -0.75 C 14.789062 0.09375 12.820312 0.515625 10.8125 0.515625 C 9.09375 0.515625 7.53125 0.144531 6.125 -0.59375 C 4.726562 -1.332031 3.640625 -2.332031 2.859375 -3.59375 C 2.085938 -4.851562 1.703125 -6.242188 1.703125 -7.765625 Z M 19.78125 -5.6875 C 20.15625 -6.175781 20.445312 -6.644531 20.65625 -7.09375 C 20.863281 -7.539062 20.96875 -7.9375 20.96875 -8.28125 L 20.96875 -12.21875 C 19.789062 -12.664062 18.570312 -13.007812 17.3125 -13.25 C 16.050781 -13.488281 14.785156 -13.609375 13.515625 -13.609375 C 10.992188 -13.609375 8.957031 -13.109375 7.40625 -12.109375 C 5.851562 -11.109375 5.078125 -9.75 5.078125 -8.03125 C 5.078125 -7.019531 5.332031 -6.070312 5.84375 -5.1875 C 6.363281 -4.3125 7.125 -3.585938 8.125 -3.015625 C 9.125 -2.453125 10.296875 -2.171875 11.640625 -2.171875 C 13.335938 -2.171875 14.914062 -2.5 16.375 -3.15625 C 17.84375 -3.8125 18.976562 -4.65625 19.78125 -5.6875 Z M 19.78125 -5.6875 "/></g></g></g><g fill="#ddffcf" fill-opacity="1"><g transform="translate(256.11887, 111.078782)"><g><path d="M 19.515625 0.265625 C 16.828125 0.265625 14.382812 -0.25 12.1875 -1.28125 C 10 -2.320312 8.117188 -3.726562 6.546875 -5.5 C 4.972656 -7.28125 3.753906 -9.285156 2.890625 -11.515625 C 2.035156 -13.742188 1.609375 -16.03125 1.609375 -18.375 C 1.609375 -20.820312 2.0625 -23.160156 2.96875 -25.390625 C 3.882812 -27.617188 5.144531 -29.601562 6.75 -31.34375 C 8.351562 -33.082031 10.25 -34.460938 12.4375 -35.484375 C 14.632812 -36.503906 17.046875 -37.015625 19.671875 -37.015625 C 22.328125 -37.015625 24.75 -36.476562 26.9375 -35.40625 C 29.132812 -34.332031 31.007812 -32.898438 32.5625 -31.109375 C 34.113281 -29.316406 35.320312 -27.316406 36.1875 -25.109375 C 37.050781 -22.898438 37.484375 -20.617188 37.484375 -18.265625 C 37.484375 -15.859375 37.03125 -13.539062 36.125 -11.3125 C 35.226562 -9.082031 33.976562 -7.097656 32.375 -5.359375 C 30.769531 -3.617188 28.867188 -2.242188 26.671875 -1.234375 C 24.484375 -0.234375 22.097656 0.265625 19.515625 0.265625 Z M 8.859375 -18.375 C 8.859375 -16.789062 9.097656 -15.253906 9.578125 -13.765625 C 10.054688 -12.285156 10.753906 -10.96875 11.671875 -9.8125 C 12.585938 -8.65625 13.707031 -7.738281 15.03125 -7.0625 C 16.363281 -6.394531 17.875 -6.0625 19.5625 -6.0625 C 21.289062 -6.0625 22.828125 -6.410156 24.171875 -7.109375 C 25.515625 -7.816406 26.632812 -8.765625 27.53125 -9.953125 C 28.4375 -11.148438 29.117188 -12.484375 29.578125 -13.953125 C 30.046875 -15.421875 30.28125 -16.894531 30.28125 -18.375 C 30.28125 -19.96875 30.03125 -21.492188 29.53125 -22.953125 C 29.03125 -24.421875 28.320312 -25.734375 27.40625 -26.890625 C 26.488281 -28.046875 25.363281 -28.957031 24.03125 -29.625 C 22.707031 -30.300781 21.21875 -30.640625 19.5625 -30.640625 C 17.800781 -30.640625 16.253906 -30.285156 14.921875 -29.578125 C 13.597656 -28.867188 12.488281 -27.925781 11.59375 -26.75 C 10.695312 -25.582031 10.015625 -24.273438 9.546875 -22.828125 C 9.085938 -21.378906 8.859375 -19.894531 8.859375 -18.375 Z M 8.859375 -18.375 "/></g></g></g><g fill="#ddffcf" fill-opacity="1"><g transform="translate(293.544095, 111.078782)"><g><path d="M 28.375 0 L 21.4375 0 L 21.4375 -15.21875 C 21.4375 -17.394531 21.054688 -18.984375 20.296875 -19.984375 C 19.535156 -20.984375 18.484375 -21.484375 17.140625 -21.484375 C 16.203125 -21.484375 15.257812 -21.238281 14.3125 -20.75 C 13.363281 -20.269531 12.507812 -19.609375 11.75 -18.765625 C 10.988281 -17.921875 10.4375 -16.945312 10.09375 -15.84375 L 10.09375 0 L 3.15625 0 L 3.15625 -27.125 L 9.421875 -27.125 L 9.421875 -22.109375 C 10.109375 -23.273438 10.988281 -24.265625 12.0625 -25.078125 C 13.132812 -25.890625 14.367188 -26.507812 15.765625 -26.9375 C 17.160156 -27.375 18.632812 -27.59375 20.1875 -27.59375 C 21.875 -27.59375 23.257812 -27.289062 24.34375 -26.6875 C 25.4375 -26.082031 26.265625 -25.269531 26.828125 -24.25 C 27.398438 -23.226562 27.800781 -22.078125 28.03125 -20.796875 C 28.257812 -19.523438 28.375 -18.234375 28.375 -16.921875 Z M 28.375 0 "/></g></g></g><g fill="#ddffcf" fill-opacity="1"><g transform="translate(323.359996, 111.078782)"><g><path d="M 15.734375 0.515625 C 13.554688 0.515625 11.585938 0.144531 9.828125 -0.59375 C 8.078125 -1.332031 6.578125 -2.347656 5.328125 -3.640625 C 4.085938 -4.941406 3.128906 -6.425781 2.453125 -8.09375 C 1.785156 -9.769531 1.453125 -11.539062 1.453125 -13.40625 C 1.453125 -16 2.03125 -18.363281 3.1875 -20.5 C 4.34375 -22.632812 6 -24.347656 8.15625 -25.640625 C 10.3125 -26.941406 12.851562 -27.59375 15.78125 -27.59375 C 18.75 -27.59375 21.285156 -26.941406 23.390625 -25.640625 C 25.503906 -24.347656 27.117188 -22.640625 28.234375 -20.515625 C 29.359375 -18.398438 29.921875 -16.117188 29.921875 -13.671875 C 29.921875 -13.253906 29.898438 -12.828125 29.859375 -12.390625 C 29.828125 -11.960938 29.796875 -11.613281 29.765625 -11.34375 L 8.796875 -11.34375 C 8.929688 -9.957031 9.335938 -8.742188 10.015625 -7.703125 C 10.691406 -6.671875 11.554688 -5.890625 12.609375 -5.359375 C 13.660156 -4.828125 14.789062 -4.5625 16 -4.5625 C 17.375 -4.5625 18.671875 -4.894531 19.890625 -5.5625 C 21.117188 -6.238281 21.960938 -7.128906 22.421875 -8.234375 L 28.375 -6.578125 C 27.71875 -5.191406 26.773438 -3.960938 25.546875 -2.890625 C 24.316406 -1.828125 22.875 -0.992188 21.21875 -0.390625 C 19.5625 0.210938 17.734375 0.515625 15.734375 0.515625 Z M 8.640625 -15.734375 L 22.828125 -15.734375 C 22.691406 -17.117188 22.300781 -18.316406 21.65625 -19.328125 C 21.019531 -20.347656 20.179688 -21.140625 19.140625 -21.703125 C 18.109375 -22.273438 16.957031 -22.5625 15.6875 -22.5625 C 14.445312 -22.5625 13.316406 -22.273438 12.296875 -21.703125 C 11.273438 -21.140625 10.445312 -20.347656 9.8125 -19.328125 C 9.175781 -18.316406 8.785156 -17.117188 8.640625 -15.734375 Z M 8.640625 -15.734375 "/></g></g></g></svg>